<?xml version="1.0" encoding="UTF-8"?>
<svg width="157px" height="39px" viewBox="0 0 157 39" version="1.1" xmlns="http://www.w3.org/2000/svg" xmlns:xlink="http://www.w3.org/1999/xlink">
    <!-- Generator: Sketch 44.1 (41455) - http://www.bohemiancoding.com/sketch -->
    <title>Page 1</title>
    <desc>Created with Sketch.</desc>
    <defs>
        <polygon id="path-1" points="7.67782853 0.457948718 0.152886161 0.457948718 0.152886161 27.2731197 7.67782853 27.2731197 7.67782853 0.457948718"></polygon>
        <polygon id="path-3" points="14.5184623 0.520064103 14.5184623 16.5149786 0.592086404 16.5149786 0.592086404 0.520064103 14.5184623 0.520064103"></polygon>
    </defs>
    <g id="Page-1" stroke="none" stroke-width="1" fill="none" fill-rule="evenodd">
        <g id="Front-page-hugrún" transform="translate(-1142.000000, -5615.000000)">
            <g id="footer" transform="translate(120.000000, 5573.000000)">
                <g id="Page-1" transform="translate(1022.000000, 42.000000)">
                    <g id="Group-3" transform="translate(0.000000, 9.285966)" fill="#000000">
                        <path d="M5.00485519,19.8299103 C2.24718129,19.8299103 0.782907955,19.052047 0.782907955,17.7326026 C0.782907955,16.0420897 2.48591262,14.2841838 4.39249298,13.8099957 C2.72382638,13.0329444 1.29389111,11.071235 1.29389111,8.73845726 C1.29389111,5.39072222 4.08590308,2.92234615 7.69548811,2.92234615 C9.7042651,2.92234615 10.9976657,3.49640598 12.2575457,4.54546581 C12.2575457,2.27926923 13.9597328,0.554653846 15.6970756,0.554653846 C17.297066,0.554653846 17.6715145,1.39991026 17.6715145,2.1777735 C17.6715145,3.19273077 17.1605313,3.83499573 16.3772963,3.83499573 C15.3226271,3.83499573 15.3226271,3.09123504 14.470716,3.09123504 C13.7218191,3.09123504 13.1773154,4.03798718 13.1773154,4.84914103 C13.1773154,5.22183333 13.2795121,5.62700427 13.4152292,5.96559402 C13.8240157,6.94563675 14.028409,7.79170513 14.028409,8.83914103 C14.028409,12.1194829 11.2699175,14.6219615 7.69548811,14.6219615 C6.77571843,14.6219615 6.16253864,14.4871752 5.41364172,14.4871752 C4.22162021,14.4871752 3.26833003,15.4339274 3.26833003,16.2791838 C3.26833003,16.9888419 3.91584789,17.6311068 5.61803498,17.6311068 C7.21884302,17.6311068 8.95536818,17.3607222 10.7254138,17.3607222 C13.687481,17.3607222 16.2750997,18.0711923 16.2750997,21.2500385 C16.2750997,26.3897821 9.80646173,29.2308504 5.72023162,29.2308504 C1.83839476,29.2308504 -0.000327029221,27.506235 -0.000327029221,25.5104231 C-0.000327029221,23.5495256 1.73619813,21.284141 5.00485519,19.9987991 L5.00485519,19.8299103 Z M2.75816445,24.4288846 C2.75816445,25.9837991 4.05156502,27.3024316 7.01444976,27.3024316 C10.8276105,27.3024316 14.2671403,24.9363632 14.2671403,22.2649957 C14.2671403,19.930594 11.9174353,19.8640128 9.90865836,19.8640128 C8.1721332,19.8640128 6.74219793,19.8973034 5.89028681,20.3032863 C3.94936838,21.2167479 2.75816445,22.9405513 2.75816445,24.4288846 L2.75816445,24.4288846 Z M3.94936838,9.31332906 C3.94936838,11.5454231 5.75456968,13.3374316 8.0355985,13.3374316 C10.2487688,13.3374316 12.0874905,11.5454231 12.0874905,9.31332906 C12.0874905,7.11533761 10.2487688,5.28841453 8.0355985,5.28841453 C5.75456968,5.28841453 3.94936838,7.11533761 3.94936838,9.31332906 L3.94936838,9.31332906 Z" id="Fill-1"></path>
                    </g>
                    <path d="M21.0101558,19.8167564 C21.0101558,23.1303889 23.4277193,25.1594915 26.7298969,25.1594915 C28.9438847,25.1594915 30.4073405,24.1786368 31.1227169,23.4348761 L31.4628273,23.6378675 C30.6795923,26.3425256 28.8752086,28.304235 26.015338,28.304235 C21.3846043,28.304235 18.830506,24.719406 18.830506,21.1686795 C18.830506,15.3533803 23.3590432,12.2752179 26.8320935,12.2752179 C29.5562469,12.2752179 31.9394724,13.865047 31.9394724,16.8750043 C31.9394724,17.5172692 31.7694172,18.0247479 30.816127,18.0247479 C27.4117528,18.0247479 24.3466714,17.8209444 21.2824076,17.7535513 C21.1115349,18.3625256 21.0101558,19.0388932 21.0101558,19.8167564 M29.2161365,16.2319274 C29.2161365,14.8791923 27.7175251,14.0339359 26.015338,14.0339359 C24.1766162,14.0339359 22.2356978,15.2510726 21.5546595,16.975688 C26.7642349,16.738594 29.2161365,17.1786795 29.2161365,16.2319274" id="Fill-4" fill="#000000"></path>
                    <path d="M37.0143118,10.5173932 L36.4354701,9.16465812 L41.3392733,6.32440171 C39.8406619,4.76786325 37.967602,3.21294872 35.7879522,1.75871795 L36.3676115,1.21794872 C36.5376667,1.38683761 39.534072,2.87517094 42.7005324,5.5124359 L47.7057146,2.60397436 L48.2845563,3.9567094 L43.8238778,6.5265812 C47.1268729,9.56982906 50.2589953,13.8651282 50.2589953,19.2411538 C50.2589953,25.294359 46.3444555,28.1354274 42.4969567,28.1354274 C38.8530336,28.1354274 35.2434486,25.531453 35.2434486,20.4923932 C35.2434486,15.318547 38.3772061,12.2420085 41.8494388,12.2420085 C43.0414603,12.2420085 43.8925539,12.5123932 44.811506,12.9175641 L44.6757889,13.6280342 C44.1648057,13.4932479 43.6546401,13.3917521 43.143657,13.3917521 C40.2151103,13.3917521 38.3420504,16.6379915 38.3420504,20.6279915 C38.3420504,24.3476068 40.0793932,26.0722222 42.019494,26.0722222 C44.369199,26.0722222 47.0246763,23.4349573 47.0246763,18.5988889 C47.0246763,15.1163675 45.5268824,11.1596581 42.3260839,7.40594017 L37.0143118,10.5173932 Z" id="Fill-6" fill="#000000"></path>
                    <path d="M64.1192294,1.42061538 C66.2980616,1.42061538 67.3200279,2.19847863 67.3200279,3.41642735 C67.3200279,4.36236752 66.6054691,4.97134188 65.6513613,4.97134188 C64.0170328,4.97134188 64.1535675,3.6527094 62.178311,3.6527094 C60.5439825,3.6527094 58.6717402,5.00544444 58.5695436,9.16433333 C58.5352055,9.77330769 58.4665294,11.2608291 58.4330089,12.8165556 L62.2805077,12.8165556 L62.178311,14.8797607 L58.4330089,14.777453 C58.3643327,18.9712564 58.3308122,23.5028376 58.3308122,26.7149744 L61.1563447,26.7149744 L61.1563447,27.6276239 L53.3943061,27.6276239 L53.3943061,26.7149744 L55.6745174,26.7149744 L55.6745174,14.6426667 L52.8489849,14.6426667 L52.8489849,13.9662991 C53.8701337,13.8315128 54.8242414,13.2899316 55.6745174,12.8506581 L55.6745174,12.3098889 C55.6745174,6.73005983 59.2162439,1.42061538 64.1192294,1.42061538" id="Fill-8" fill="#000000"></path>
                    <path d="M69.3300313,26.7148932 L72.4621537,26.7148932 L72.4621537,27.6275427 L64.3248491,27.6275427 L64.3248491,26.7148932 L66.6058779,26.7148932 L66.6058779,15.1833547 L64.3248491,14.2374145 L64.3248491,13.8988248 C66.5715398,13.4928419 68.5124582,12.4786966 69.1934966,11.7008333 L69.6022831,11.8023291 C69.5000865,12.5119872 69.466566,13.6958333 69.466566,14.9470726 C71.0665565,13.1891667 72.6322088,12.2757051 73.8585684,12.2757051 C74.8797172,12.2757051 75.492897,13.1542521 75.492897,14.1692094 C75.492897,15.1833547 75.0162519,16.198312 73.8920889,16.198312 C72.6322088,16.198312 72.4286332,15.0485684 71.1687531,15.0485684 C70.1132663,15.0485684 69.5000865,15.9953205 69.466566,17.3480556 C69.3978899,20.6275855 69.3300313,24.178312 69.3300313,26.7148932" id="Fill-10" fill="#000000"></path>
                    <path d="M80.5333166,28.2365171 C78.6610743,28.2365171 77.8091632,27.288953 77.8091632,25.9029274 C77.8091632,22.8596795 81.3852277,21.0335684 85.0961918,19.2074573 C85.1297123,18.8355769 85.1297123,18.4977991 85.1297123,18.2266026 C85.1297123,15.081859 84.2450982,14.5077991 82.8486835,14.5077991 C81.3852277,14.5077991 80.1932062,15.6575427 79.8522782,17.1791667 C79.647885,17.9903205 79.1033813,18.3289103 78.5245396,18.3289103 C77.8091632,18.3289103 77.3325181,17.7532265 77.3325181,16.9420726 C77.3325181,14.9811752 79.5113503,12.2416026 83.0530767,12.2416026 C85.5720193,12.2416026 86.867055,13.3913462 87.4115587,15.0485684 C89.0458872,13.2224573 91.2590574,12.2757051 93.1999759,12.2757051 C95.9233117,12.2757051 98.3073547,13.8647222 98.3073547,16.8746795 C98.3073547,17.5169444 98.1372995,18.0244231 97.1831918,18.0244231 C93.7788176,18.0244231 90.7145538,17.8214316 87.6494724,17.7532265 C87.4794172,18.3622009 87.3772206,19.0385684 87.3772206,19.8164316 C87.3772206,23.1308761 89.7947841,25.1591667 93.2334964,25.1591667 C95.3101319,25.1591667 96.7744053,24.178312 97.4554436,23.4345513 L97.8642301,23.8746368 C97.0474747,26.6133974 95.2422734,28.3039103 92.3824028,28.3039103 C88.7728178,28.3039103 86.4239304,26.1400214 85.5720193,23.4678419 C84.6195467,26.646688 82.5764316,28.2365171 80.5333166,28.2365171 M80.3967819,24.8546795 C80.3967819,25.531859 80.8742445,26.0044231 81.6574795,26.0044231 C82.9508801,26.0044231 84.82394,24.6525 85.0961918,20.0868162 C81.9632518,21.6084402 80.3967819,23.3671581 80.3967819,24.8546795 M95.5832013,16.2316026 C95.5832013,14.8796795 94.0845899,14.0336111 92.3824028,14.0336111 C90.543681,14.0336111 88.6027626,15.2515598 87.9225418,16.9753632 C93.1312997,16.7390812 95.5832013,17.1791667 95.5832013,16.2316026" id="Fill-12" fill="#000000"></path>
                    <path d="M103.383094,10.5173932 L102.804252,9.16465812 L107.708055,6.32440171 C106.209444,4.76786325 104.336384,3.21294872 102.156734,1.75871795 L102.736393,1.21794872 C102.906448,1.38683761 105.902854,2.87517094 109.069314,5.5124359 L114.074496,2.60397436 L114.653338,3.9567094 L110.192659,6.5265812 C113.495655,9.56982906 116.627777,13.8651282 116.627777,19.2411538 C116.627777,25.294359 112.71242,28.1354274 108.864921,28.1354274 C105.221815,28.1354274 101.61223,25.531453 101.61223,20.4923932 C101.61223,15.318547 104.74517,12.2420085 108.218221,12.2420085 C109.410242,12.2420085 110.261336,12.5123932 111.180288,12.9175641 L111.044571,13.6280342 C110.533587,13.4932479 110.022604,13.3917521 109.512439,13.3917521 C106.583892,13.3917521 104.710832,16.6379915 104.710832,20.6279915 C104.710832,24.3476068 106.447357,26.0722222 108.388276,26.0722222 C110.737981,26.0722222 113.393458,23.4349573 113.393458,18.5988889 C113.393458,15.1163675 111.894847,11.1596581 108.694866,7.40594017 L103.383094,10.5173932 Z" id="Fill-14" fill="#000000"></path>
                    <path d="M120.988058,23.1977821 C120.988058,24.6179103 122.145741,26.3766282 124.529784,26.3766282 C126.231971,26.3766282 127.150923,25.4298761 127.150923,24.1104316 C127.150923,20.9997906 120.885861,22.1836368 120.885861,16.8400897 C120.885861,14.3384231 122.827597,12.0389359 125.789664,12.0389359 C128.20641,12.0389359 129.637163,13.3916709 129.637163,14.8791923 C129.637163,15.7926538 129.023983,16.1978248 128.410803,16.1978248 C126.845151,16.1978248 127.321796,14.1687222 125.483074,14.1687222 C124.393249,14.1687222 123.439959,14.8791923 123.439959,16.3675256 C123.439959,19.7826538 129.77288,18.9373974 129.77288,23.6711581 C129.77288,26.6811154 127.150923,28.1686368 124.699839,28.1686368 C122.010024,28.1686368 120.307019,26.5455171 120.307019,24.2460299 C120.307019,23.9082521 120.341357,23.5696624 120.409216,23.1977821 L120.988058,23.1977821 Z" id="Fill-16" fill="#000000"></path>
                    <g id="Group-20" transform="translate(132.446834, 0.354342)">
                        <mask id="mask-2" fill="white">
                            <use xlink:href="#path-1"></use>
                        </mask>
                        <g id="Clip-19"></g>
                        <path d="M0.152886161,2.55444444 L0.152886161,1.60688034 C2.46825304,1.60688034 4.61356473,1.30320513 5.53251684,0.457136752 L5.94130337,0.592735043 C5.60119298,3.02782051 5.39679972,18.4478632 5.39679972,26.3604701 L7.67782853,26.3604701 L7.67782853,27.2731197 L0.459476055,27.2731197 L0.459476055,26.3604701 L2.74050487,26.3604701 L2.74050487,2.55444444 L0.152886161,2.55444444 Z" id="Fill-18" fill="#000000" mask="url(#mask-2)"></path>
                    </g>
                    <g id="Group-23" transform="translate(142.257711, 11.721863)">
                        <mask id="mask-4" fill="white">
                            <use xlink:href="#path-3"></use>
                        </mask>
                        <g id="Clip-22"></g>
                        <path d="M8.3892806,6.5050641 C8.3892806,3.36032051 7.50384899,2.78544872 6.10743421,2.78544872 C4.64397845,2.78544872 3.45277451,3.93519231 3.11184655,5.45681624 C2.90745329,6.26797009 2.36294963,6.60655983 1.78410791,6.60655983 C1.06873149,6.60655983 0.592086404,6.03168803 0.592086404,5.22053419 C0.592086404,3.25882479 2.77091859,0.520064103 6.31264505,0.520064103 C9.99008864,0.520064103 11.012055,2.95433761 11.012055,5.79540598 C11.012055,7.82450855 10.6024509,10.0898932 10.6024509,11.7463034 C10.6024509,13.2005342 11.2843068,13.775406 12.2032589,13.775406 C13.1565491,13.775406 13.9389665,13.2679274 14.1441773,12.7953632 L14.5186258,13.0657479 C14.1441773,13.9451068 13.122211,16.2778846 11.0790959,16.2778846 C9.27471222,16.2778846 8.5593358,14.6880556 8.5258153,12.6938675 L8.35494253,12.6938675 C7.74258032,14.4176709 5.90385852,16.5149786 3.7928849,16.5149786 C1.92064261,16.5149786 1.06873149,15.5674145 1.06873149,14.1813889 C1.06873149,11.138141 4.64397845,9.31202991 8.35494253,7.4859188 C8.3892806,7.11403846 8.3892806,6.77544872 8.3892806,6.5050641 M3.6563502,13.133141 C3.6563502,13.8095085 4.13299529,14.2828846 4.91623028,14.2828846 C6.21044842,14.2828846 8.08269071,12.9301496 8.35494253,8.36527778 C5.22282017,9.88690171 3.6563502,11.6456197 3.6563502,13.133141" id="Fill-21" fill="#000000" mask="url(#mask-4)"></path>
                    </g>
                </g>
            </g>
        </g>
    </g>
</svg>