<?xml version="1.0" encoding="UTF-8"?>
<svg width="78px" height="29px" viewBox="0 0 78 29" version="1.1" xmlns="http://www.w3.org/2000/svg" xmlns:xlink="http://www.w3.org/1999/xlink">
    <!-- Generator: Sketch 44.1 (41455) - http://www.bohemiancoding.com/sketch -->
    <title>hugrún_logo</title>
    <desc>Created with Sketch.</desc>
    <defs></defs>
    <g id="Page-1" stroke="none" stroke-width="1" fill="none" fill-rule="evenodd">
        <g id="Front-page-hugrún" transform="translate(-681.000000, -14.000000)" fill-rule="nonzero" fill="#000000">
            <g id="hugrún_logo" transform="translate(681.000000, 14.000000)">
                <path d="M7.6625,9.2175 C9.275,9.2175 10.6625,9.8075 11.4125,11.5225 C11.9125,12.7 11.7975,14.6475 11.7975,17.54 L11.7975,19.845 L13.335,19.845 L13.335,20.5375 L8.0225,20.5375 L8.0225,19.845 L9.7375,19.845 C9.7375,16.345 9.635,13.955 9.25,12.75 C8.815,11.29 7.8925,10.6 6.125,10.6 C5.42335641,10.5855971 4.72889323,10.7435467 4.1025,11.06 C4.05,13.7225 4.025,17.31 4.025,19.845 L6,19.845 L6,20.5375 L0.3125,20.5375 L0.3125,19.845 L2.0275,19.845 L2.0275,1.815 L0.0825,1.815 L0.0825,1.0975 C1.8325,1.0975 3.4375,0.8675 4.13,0.2275 L4.4375,0.33 C4.2075,2.175 4.105,9.8575 4.105,10.4975 C5.1230407,9.70065539 6.37014484,9.25194328 7.6625,9.2175 L7.6625,9.2175 Z" id="Shape"></path>
                <path d="M16.75,15.8225 C16.75,18.3075 17.8775,19.0725 19.5425,19.0725 C20.9775,19.0725 22.4375,18.1775 22.4375,16.8225 L22.4375,10 L20.7225,10 L20.7225,9.32 L24.75,9.32 C24.545,11.24 24.4425,15.21 24.4425,17.72 C24.4425,18.82 24.6925,19.18 25.415,19.18 C25.9855149,19.1756154 26.5286616,18.9348203 26.915,18.515 L27.095,18.67 C26.7375,19.8225 26.02,20.77 24.765,20.77 C23.51,20.77 22.845,19.6175 22.845,18.27 L22.7175,18.27 C21.9675,19.8075 20.1575,20.77 18.44,20.77 C16.4675,20.77 14.65,19.52 14.65,16.415 L14.65,10 L13.15,10 L13.15,9.32 L16.965,9.32 C16.8875,10.445 16.75,13.39 16.75,15.8225 Z" id="Shape"></path>
                <path d="M31.33,21.6625 C29.255,21.6625 28.155,21.0725 28.155,20.075 C28.155,18.795 29.435,17.4625 30.87,17.105 C29.4334094,16.3645815 28.5333114,14.8811582 28.54,13.265 C28.54,10.73 30.64,8.86 33.355,8.86 C34.6149928,8.81188008 35.8448312,9.25257963 36.7875,10.09 C36.7875,8.375 38.0675,7.0675 39.375,7.0675 C40.5775,7.0675 40.86,7.7075 40.86,8.2975 C40.86,9.065 40.475,9.5475 39.8875,9.5475 C39.0925,9.5475 39.0925,8.985 38.4525,8.985 C37.89,8.985 37.48,9.7025 37.48,10.3175 C37.4879458,10.6077893 37.5489507,10.8941736 37.66,11.1625 C37.963993,11.8481552 38.1207039,12.5899771 38.12,13.34 C38.12,15.825 36.045,17.72 33.355,17.72 C32.6625,17.72 32.2025,17.6175 31.64,17.6175 C30.7425,17.6175 30.0275,18.335 30.0275,18.975 C30.0275,19.5125 30.515,20 31.795,20 C33,20 34.295,19.795 35.6375,19.795 C37.865,19.795 39.8125,20.3325 39.8125,22.74 C39.8125,26.6325 34.9475,28.785 31.8725,28.785 C28.9525,28.785 27.57,27.4775 27.57,25.9675 C27.57,24.4575 28.8775,22.765 31.335,21.7925 L31.33,21.6625 Z M29.64,25.145 C29.64,26.3225 30.6125,27.3225 32.8425,27.3225 C35.71,27.3225 38.2975,25.53 38.2975,23.5075 C38.2975,21.74 36.53,21.69 35.02,21.69 C33.7125,21.69 32.6375,21.715 31.9975,22.0225 C30.535,22.7125 29.64,24.02 29.64,25.145 L29.64,25.145 Z M30.535,13.6975 C30.5281182,15.3871438 31.8920156,16.7625807 33.5816574,16.7699341 C35.2712992,16.7772876 36.6471168,15.4137741 36.6549418,13.7241344 C36.6627668,12.0344947 35.2996374,10.6582967 33.61,10.65 C32.7967969,10.6419875 32.0141779,10.9596021 31.4365514,11.5320628 C30.858925,12.1045234 30.5342928,12.8842577 30.535,13.6975 L30.535,13.6975 Z" id="Shape"></path>
                <path d="M44.88,19.845 L47.235,19.845 L47.235,20.5375 L41.115,20.5375 L41.115,19.845 L42.83,19.845 L42.83,11.1125 L41.115,10.395 L41.115,10.145 C42.805,9.8375 44.265,9.07 44.7775,8.48 L45.085,8.5575 C45.0028751,9.3488771 44.9686461,10.1444937 44.9825,10.94 C46.185,9.6075 47.365,8.9175 48.285,8.9175 C49.0525,8.9175 49.515,9.5825 49.515,10.3525 C49.515,11.1225 49.1575,11.89 48.31,11.89 C47.3625,11.89 47.21,11.02 46.2625,11.02 C45.4675,11.02 45.0125,11.7375 44.9825,12.77 C44.93,15.235 44.88,17.925 44.88,19.845 Z" id="Shape"></path>
                <path d="M54,15.8225 C54,18.3075 55.1275,19.0725 56.7925,19.0725 C58.2275,19.0725 59.6875,18.1775 59.6875,16.8225 L59.6875,10 L58.2725,10 C58.1929351,10 58.1166289,9.96839295 58.060368,9.91213203 C58.0041071,9.85587112 57.9725,9.77956495 57.9725,9.7 L57.9725,9.6025 C57.977503,9.4505156 58.0981292,9.32771597 58.25,9.32 L62,9.32 C61.795,11.24 61.6925,15.21 61.6925,17.72 C61.6925,18.82 61.9425,19.18 62.665,19.18 C63.255,19.18 63.915,19.1025 64.355,18.68 L64.355,18.68 C63.9975,19.8325 63.28,20.78 62.025,20.78 C60.77,20.78 59.9775,19.6275 59.9775,18.28 L59.9775,18.28 C59.2275,19.8175 57.4175,20.78 55.7,20.78 C53.7275,20.78 51.91,19.53 51.91,16.425 L51.91,10 L50.41,10 L50.41,9.62 C50.41,9.45431458 50.5443146,9.32 50.71,9.32 L54.225,9.32 C54.1275,10.445 54,13.39 54,15.8225 Z M56.29,7.1025 C56.0575487,7.40966526 55.651951,7.52931659 55.29,7.3975 L55.29,7.3975 L58.225,1.2775 C58.4480713,0.901737023 58.8641098,0.684042437 59.3,0.715 C59.8125,0.715 60.325,0.965 60.325,1.4325 C60.2992208,1.69772557 60.1917811,1.94841809 60.0175,2.15 L56.29,7.1025 Z" id="Shape"></path>
                <path d="M65.655,10.575 C65.5335614,10.507076 65.464813,10.3728497 65.4806585,10.2346111 C65.4965041,10.0963724 65.5938416,9.98118367 65.7275,9.9425 C67.0575,9.5725 68.1725,8.96 68.7275,8.4725 L69.035,8.55 C69.0025,8.895 68.9575,9.3 68.9175,9.7175 C68.9048032,9.84704181 68.9660952,9.97270254 69.0759953,10.0424468 C69.1858954,10.1121911 69.3256935,10.1141452 69.4375,10.0475 C70.308808,9.5288844 71.29885,9.24306356 72.3125,9.2175 C73.925,9.2175 75.3125,9.8075 76.0625,11.5225 C76.5625,12.7 76.4475,14.6475 76.4475,17.54 L76.4475,19.5 C76.4475,19.6905382 76.6019618,19.845 76.7925,19.845 L77.6375,19.845 C77.8280382,19.845 77.9825,19.9994618 77.9825,20.19 L77.9825,20.19 C77.9825,20.3805382 77.8280382,20.535 77.6375,20.535 L73.015,20.535 C72.8244618,20.535 72.67,20.3805382 72.67,20.19 L72.67,20.19 C72.67,19.9994618 72.8244618,19.845 73.015,19.845 L74.0375,19.845 C74.2288442,19.8422662 74.3825195,19.6863638 74.3825,19.495 C74.3825,16.1775 74.2675,13.915 73.8975,12.745 C73.4625,11.285 72.54,10.595 70.7725,10.595 C70.1778081,10.5874146 69.5885082,10.7085153 69.045,10.95 C68.9274082,11.0037693 68.8493945,11.1183821 68.8425,11.2475 C68.7275,13.88 68.6775,17.14 68.6725,19.4975 C68.6724976,19.5887715 68.7089253,19.6762687 68.7736982,19.7405723 C68.8384711,19.8048758 68.926231,19.8406662 69.0175,19.84 L70.0425,19.84 C70.2330382,19.84 70.3875,19.9944618 70.3875,20.185 L70.3875,20.185 C70.3875,20.3755382 70.2330382,20.53 70.0425,20.53 L65.23,20.53 C65.0394618,20.53 64.885,20.3755382 64.885,20.185 L64.885,20.185 C64.885,19.9944618 65.0394618,19.84 65.23,19.84 L66.25,19.84 C66.3415025,19.8413357 66.4297869,19.8062626 66.4954268,19.7424981 C66.5610666,19.6787337 66.5986835,19.5915028 66.6,19.5 L66.6,11.3125 C66.599925,11.1882884 66.5330851,11.0737057 66.425,11.0125 L65.655,10.575 Z" id="Shape"></path>
            </g>
        </g>
    </g>
</svg>