<?xml version="1.0" encoding="UTF-8"?>
<svg width="29px" height="20px" viewBox="0 0 29 20" version="1.1" xmlns="http://www.w3.org/2000/svg" xmlns:xlink="http://www.w3.org/1999/xlink">
    <!-- Generator: Sketch 44.1 (41455) - http://www.bohemiancoding.com/sketch -->
    <title>iconmonstr-banknote-10 copy 2</title>
    <desc>Created with Sketch.</desc>
    <defs></defs>
    <g id="Page-1" stroke="none" stroke-width="1" fill="none" fill-rule="evenodd">
        <g id="Artboard" transform="translate(-50.000000, -79.000000)" fill-rule="nonzero" fill="#FFFFFF">
            <g id="iconmonstr-banknote-10-copy-2" transform="translate(50.000000, 79.000000)">
                <path d="M4.83333333,5 L4.83333333,20 L29,20 L29,5 L4.83333333,5 Z M16.9166667,17.5 C14.2474583,17.5 12.0833333,15.26 12.0833333,12.5 C12.0833333,9.74 14.2474583,7.5 16.9166667,7.5 C19.585875,7.5 21.75,9.74 21.75,12.5 C21.75,15.26 19.585875,17.5 16.9166667,17.5 Z M17.1583333,14.97375 L17.1583333,15.5 L16.675,15.5 L16.675,15.00125 C16.1759583,14.9925 15.656375,14.87 15.225,14.6375 L15.446125,13.81625 C15.9089167,14.00125 16.5239583,14.19875 17.0036667,14.08625 C17.5595,13.95625 17.6742917,13.365 17.0604583,13.08 C16.60975,12.865 15.2334583,12.6775 15.2334583,11.45875 C15.2334583,10.77625 15.7349167,10.16625 16.675,10.0325 L16.675,9.5 L17.1583333,9.5 L17.1583333,10.00875 C17.5075417,10.01875 17.90025,10.08125 18.3400833,10.21875 L18.1636667,11.0425 C17.7927083,10.90875 17.3830833,10.785 16.983125,10.81125 C16.2629583,10.855 16.1989167,11.5 16.7027917,11.77 C17.5292917,12.17125 18.6083333,12.47125 18.6083333,13.5425 C18.6083333,14.40125 17.9594583,14.85875 17.1583333,14.97375 L17.1583333,14.97375 Z M26.5833333,3.75 L3.625,3.75 L3.625,17.5 L2.41666667,17.5 L2.41666667,2.5 L26.5833333,2.5 L26.5833333,3.75 Z M24.1666667,1.25 L1.20833333,1.25 L1.20833333,15 L0,15 L0,0 L24.1666667,0 L24.1666667,1.25 Z" id="Shape"></path>
            </g>
        </g>
    </g>
</svg>