<?xml version="1.0" encoding="UTF-8"?>
<svg width="25px" height="25px" viewBox="0 0 25 25" version="1.1" xmlns="http://www.w3.org/2000/svg" xmlns:xlink="http://www.w3.org/1999/xlink">
    <!-- Generator: Sketch 44.1 (41455) - http://www.bohemiancoding.com/sketch -->
    <title>iconmonstr-link-2 copy 2</title>
    <desc>Created with Sketch.</desc>
    <defs></defs>
    <g id="Page-1" stroke="none" stroke-width="1" fill="none" fill-rule="evenodd">
        <g id="Artboard" transform="translate(-52.000000, -200.000000)" fill-rule="nonzero" fill="#FFFFFF">
            <g id="iconmonstr-link-2-copy-2" transform="translate(52.000000, 200.000000)">
                <path d="M14.2947917,19.4312508 L10.534375,23.1906258 C8.121875,25.6020841 4.21875,25.6020841 1.80729167,23.1906258 C0.640625,22.0260424 0,20.4760424 0,18.8281258 C0,17.1802091 0.640625,15.6302091 1.80625,14.4645841 L6.875,9.39687576 C9.328125,6.94375076 13.24375,7.04062576 15.6010417,9.39687576 C16.0729167,9.86875076 16.4447917,10.4104174 16.7354167,10.9875008 L15.0760417,12.6458341 C14.8885417,12.0072924 14.5552083,11.4072924 14.071875,10.9250008 C12.5635417,9.41666743 9.978125,9.35208409 8.40625,10.9239591 L8.40520833,10.9260424 L3.33541667,15.9937508 C1.77291667,17.5552091 1.77291667,20.0989591 3.33541667,21.6604174 C4.915625,23.2406258 7.45833333,23.2104174 9.00416667,21.6604174 L11.5302083,19.1354174 C12.5645833,19.4312508 13.3958333,19.4843758 14.2947917,19.4312508 L14.2947917,19.4312508 Z M14.4625,1.80833409 L10.7395833,5.53333409 C11.621875,5.48125076 12.4635417,5.53333409 13.503125,5.82812576 L15.9958333,3.33958409 C17.55625,1.77500076 20.1,1.77708409 21.6625,3.33854243 C23.2427083,4.91979243 23.2104167,7.46250076 21.6625,9.00729243 L16.6302083,14.0395841 L16.6270833,14.0416674 C15.1291667,15.5385424 12.5791667,15.6583341 10.9614583,14.0395841 C10.46875,13.5458341 10.14375,12.9541674 9.965625,12.3281258 L9.878125,12.3989591 L8.29791667,13.9770841 C8.58958333,14.5562508 8.959375,15.0968758 9.43125,15.5687508 C11.7697917,17.9072924 15.6854167,18.0416674 18.1583333,15.5687508 L23.1916667,10.5364591 C25.6020833,8.12395909 25.6041667,4.22187576 23.190625,1.81041743 C20.7770833,-0.607290908 16.8708333,-0.598957574 14.4625,1.80833409 L14.4625,1.80833409 Z" id="Shape"></path>
            </g>
        </g>
    </g>
</svg>