<?xml version="1.0" encoding="UTF-8"?>
<svg width="24px" height="24px" viewBox="0 0 24 24" version="1.1" xmlns="http://www.w3.org/2000/svg" xmlns:xlink="http://www.w3.org/1999/xlink">
    <!-- Generator: Sketch 44.1 (41455) - http://www.bohemiancoding.com/sketch -->
    <title>iconmonstr-lifebuoy-1 copy 2</title>
    <desc>Created with Sketch.</desc>
    <defs></defs>
    <g id="Page-1" stroke="none" stroke-width="1" fill="none" fill-rule="evenodd">
        <g id="Artboard" transform="translate(-214.000000, -201.000000)" fill-rule="nonzero" fill="#FFFFFF">
            <g id="iconmonstr-lifebuoy-1-copy-2" transform="translate(214.000000, 201.000000)">
                <path d="M12,0 C5.373,0 0,5.373 0,12 C0,18.627 5.373,24 12,24 C18.627,24 24,18.627 24,12 C24,5.373 18.627,0 12,0 Z M20.975,16.383 L18.367,14.898 C18.77,14.014 19,13.035 19,12 C19,10.965 18.77,9.986 18.367,9.103 L20.975,7.618 C21.625,8.943 22,10.427 22,12 C22,13.573 21.625,15.057 20.975,16.383 Z M2,12 C2,10.427 2.375,8.943 3.025,7.617 L5.633,9.102 C5.23,9.986 5,10.965 5,12 C5,13.035 5.23,14.014 5.633,14.897 L3.025,16.382 C2.375,15.057 2,13.573 2,12 L2,12 Z M7,12 C7,9.243 9.243,7 12,7 C14.757,7 17,9.243 17,12 C17,14.757 14.757,17 12,17 C9.243,17 7,14.757 7,12 Z M16.397,3.032 L14.912,5.64 C14.024,5.233 13.04,5 12,5 C10.96,5 9.976,5.233 9.088,5.64 L7.603,3.032 C8.932,2.378 10.421,2 12,2 C13.579,2 15.068,2.378 16.397,3.032 L16.397,3.032 Z M7.603,20.968 L9.088,18.36 C9.976,18.767 10.96,19 12,19 C13.04,19 14.024,18.767 14.912,18.36 L16.397,20.968 C15.068,21.622 13.579,22 12,22 C10.421,22 8.932,21.622 7.603,20.968 L7.603,20.968 Z" id="Shape"></path>
            </g>
        </g>
    </g>
</svg>